<svg width="18" height="18" viewBox="0 0 18 18" fill="none" xmlns="http://www.w3.org/2000/svg">
<path d="M18 16.499L13.3755 11.8746C14.3044 10.6342 14.8611 9.09925 14.8611 7.43056C14.8611 3.32677 11.5344 0 7.43056 0C3.32677 0 0 3.32677 0 7.43056C0 11.5344 3.32677 14.8611 7.43056 14.8611C9.09925 14.8611 10.6342 14.3044 11.8746 13.3755L16.499 18L18 16.499ZM2.12302 7.43056C2.12302 4.50398 4.50398 2.12302 7.43056 2.12302C10.3571 2.12302 12.7381 4.50398 12.7381 7.43056C12.7381 10.3571 10.3571 12.7381 7.43056 12.7381C4.50398 12.7381 2.12302 10.3571 2.12302 7.43056Z" fill="white"/>
</svg>